HIERARCHY
ROOT Hips
{
	OFFSET -0.001795 -0.223333 0.028219
	CHANNELS 6 Xposition Yposition Zposition Zrotation Yrotation Xrotation 
	JOINT LeftUpLeg
	{
		OFFSET 0.069520 -0.091406 -0.006815
		CHANNELS 3 Zrotation Yrotation Xrotation
		JOINT LeftLeg
		{
			OFFSET 0.034277 -0.375199 -0.004496
			CHANNELS 3 Zrotation Yrotation Xrotation
			JOINT LeftFoot
			{
				OFFSET -0.013596 -0.397961 -0.043693
				CHANNELS 3 Zrotation Yrotation Xrotation
				JOINT LeftToe
				{
					OFFSET 0.026358 -0.055791 0.119288
					CHANNELS 3 Zrotation Yrotation Xrotation
					End Site
					{
						OFFSET 0.000000 0.000000 0.000000
					}
				}
			}
		}
	}
	JOINT RightUpLeg
	{
		OFFSET -0.067670 -0.090522 -0.004320
		CHANNELS 3 Zrotation Yrotation Xrotation
		JOINT RightLeg
		{
			OFFSET -0.038290 -0.382569 -0.008850
			CHANNELS 3 Zrotation Yrotation Xrotation
			JOINT RightFoot
			{
				OFFSET 0.015774 -0.398415 -0.042312
				CHANNELS 3 Zrotation Yrotation Xrotation
				JOINT RightToe
				{
					OFFSET -0.025372 -0.048144 0.123348
					CHANNELS 3 Zrotation Yrotation Xrotation
					End Site
					{
						OFFSET 0.000000 0.000000 0.000000
					}
				}
			}
		}
	}
	JOINT Spine
	{
		OFFSET -0.002533 0.108963 -0.026696
		CHANNELS 3 Zrotation Yrotation Xrotation
		JOINT Spine1
		{
			OFFSET 0.005487 0.135180 0.001092
			CHANNELS 3 Zrotation Yrotation Xrotation
			JOINT Spine2
			{
				OFFSET 0.001457 0.052922 0.025425
				CHANNELS 3 Zrotation Yrotation Xrotation
				JOINT Neck
				{
					OFFSET -0.002778 0.213870 -0.042857
					CHANNELS 3 Zrotation Yrotation Xrotation
					JOINT Head
					{
						OFFSET 0.005152 0.064970 0.051349
						CHANNELS 3 Zrotation Yrotation Xrotation
						End Site
						{
							OFFSET 0.000000 0.000000 0.000000
						}
					}
				}
				JOINT LeftShoulder
				{
					OFFSET 0.078845 0.121749 -0.034090
					CHANNELS 3 Zrotation Yrotation Xrotation
					JOINT LeftArm
					{
						OFFSET 0.090977 0.030469 -0.008868
						CHANNELS 3 Zrotation Yrotation Xrotation
						JOINT LeftForeArm
						{
							OFFSET 0.259612 -0.012772 -0.027456
							CHANNELS 3 Zrotation Yrotation Xrotation
							JOINT LeftHand
							{
								OFFSET 0.249234 0.008986 -0.001171
								CHANNELS 3 Zrotation Yrotation Xrotation
								End Site
								{
									OFFSET 0.000000 0.000000 0.000000
								}
							}
						}
					}
				}
				JOINT RightShoulder
				{
					OFFSET -0.081759 0.118833 -0.038615
					CHANNELS 3 Zrotation Yrotation Xrotation
					JOINT RightArm
					{
						OFFSET -0.096012 0.032551 -0.009143
						CHANNELS 3 Zrotation Yrotation Xrotation
						JOINT RightForeArm
						{
							OFFSET -0.253742 -0.013329 -0.021401
							CHANNELS 3 Zrotation Yrotation Xrotation
							JOINT RightHand
							{
								OFFSET -0.255298 0.007772 -0.005559
								CHANNELS 3 Zrotation Yrotation Xrotation
								End Site
								{
									OFFSET 0.000000 0.000000 0.000000
								}
							}
						}
					}
				}
			}
		}
	}
}
MOTION
Frames: 11
Frame Time: 0.050000
-0.363925 0.875189 -0.780754 4.377757 -30.963458 1.938108 4.870380 1.634301 -31.450941 -13.787496 10.101772 33.318025 14.988875 28.195830 3.763963 0.000000 0.000000 0.000000 -15.014839 2.574017 -27.844607 29.241782 -4.783055 43.751689 -22.277839 -48.922337 0.853519 0.000000 0.000000 0.000000 3.392716 -0.353566 5.332167 -3.232838 0.898317 -8.138731 -0.740504 11.132513 4.734990 1.301320 -0.163195 -17.108112 0.000000 0.000000 0.000000 1.755707 0.460052 -0.131304 -20.667816 -12.464526 -0.874064 17.419563 -26.184316 -2.455800 0.000000 0.000000 0.000000 -0.490880 2.943007 0.994379 37.881393 30.886484 5.173540 45.047332 61.126077 27.196709 0.000000 0.000000 0.000000 
-0.373970 0.881246 -0.768342 3.989280 -27.578150 2.860842 5.883520 1.454838 -30.557355 -13.747178 8.826322 31.189254 14.723330 26.814023 6.871864 0.000000 0.000000 0.000000 -10.175745 2.072537 -21.855340 18.876325 -1.666414 32.414797 -19.186180 -44.206754 -7.042760 0.000000 0.000000 0.000000 4.417205 -0.284072 2.960156 -3.453715 1.259291 -4.820607 -2.767203 9.803721 1.654202 2.823195 -0.897108 -16.609112 0.000000 0.000000 0.000000 2.345212 -3.013752 1.088474 -18.159151 -14.696220 -0.469543 15.375689 -22.417198 -1.854717 0.000000 0.000000 0.000000 1.036213 1.000959 0.175798 36.366168 28.201449 4.451477 49.282112 58.411019 28.803083 0.000000 0.000000 0.000000 
-0.384720 0.881843 -0.759660 3.004428 -24.236028 4.217962 7.549917 1.837473 -32.059767 -14.722512 9.048758 32.382861 13.611661 24.990318 7.192915 0.000000 0.000000 0.000000 -7.010776 1.593545 -16.568760 15.302393 -1.195963 26.634340 -19.275390 -43.779719 -8.517658 0.000000 0.000000 0.000000 4.699586 -0.217946 1.673348 -3.691577 1.271449 -6.789775 -1.719405 9.103356 2.492627 2.540726 -0.925980 -13.646968 0.000000 0.000000 0.000000 1.267126 -3.419880 1.212169 -15.243098 -20.077011 -0.065454 15.196127 -19.274559 -1.584667 0.000000 0.000000 0.000000 0.338211 -0.265225 -0.144995 37.134655 24.925919 3.595598 59.004539 57.708284 34.645555 0.000000 0.000000 0.000000 
-0.392550 0.882014 -0.754533 2.556568 -20.547990 4.372265 7.548284 1.506332 -33.244645 -13.831186 8.344485 34.191518 12.973759 23.574639 10.019317 0.000000 0.000000 0.000000 -4.273764 1.294271 -13.359726 12.068765 -0.873889 22.832166 -18.134208 -41.734379 -10.237896 0.000000 0.000000 0.000000 3.895904 -0.173529 1.253274 -4.050466 1.485540 -6.619033 -1.121158 7.464475 2.361697 3.707624 -1.701490 -12.816866 0.000000 0.000000 0.000000 0.248314 -5.357882 1.872869 -12.073325 -21.994876 -0.154040 16.638347 -18.025213 -1.710725 0.000000 0.000000 0.000000 0.523289 -1.161059 -0.464696 37.811903 20.312402 2.372911 64.656454 56.438718 37.473840 0.000000 0.000000 0.000000 
-0.396609 0.884590 -0.751460 2.845056 -20.011008 5.298002 7.678922 1.466515 -33.247339 -14.242344 8.002134 32.274544 12.370304 22.693174 9.773029 0.000000 0.000000 0.000000 -2.610483 1.123799 -11.351958 10.615153 -0.638931 20.910933 -16.993024 -39.363181 -12.576777 0.000000 0.000000 0.000000 3.164904 -0.026116 -0.675395 -3.504678 1.311219 -5.819788 -1.393595 8.152358 1.572668 4.362820 -2.084760 -12.121046 0.000000 0.000000 0.000000 0.176179 -5.225814 1.807934 -12.075524 -22.587699 -0.088916 16.473043 -19.054328 -1.845209 0.000000 0.000000 0.000000 0.145056 -2.512854 -0.860580 38.710559 16.486261 1.390237 73.089655 55.309400 42.723232 0.000000 0.000000 0.000000 
-0.398353 0.890914 -0.749930 3.357706 -20.300357 6.533549 7.517385 1.444627 -33.459906 -14.010558 7.440945 30.217257 12.402850 22.447581 11.462920 0.000000 0.000000 0.000000 -1.985496 1.089208 -10.903079 8.938871 -0.296695 20.057756 -16.619186 -37.580492 -11.117567 0.000000 0.000000 0.000000 3.535481 0.047157 -1.806648 -4.279147 1.582389 -6.663287 -1.175535 8.635883 2.480618 4.654162 -2.124557 -13.439531 0.000000 0.000000 0.000000 -0.153027 -3.676419 1.259337 -14.004400 -22.091195 0.014837 19.127337 -20.572797 -2.455188 0.000000 0.000000 0.000000 0.730098 -3.933858 -1.431061 39.739411 15.424992 1.060387 81.548827 54.802318 48.519277 0.000000 0.000000 0.000000 
-0.399457 0.897902 -0.749749 4.051834 -20.615490 6.778938 6.212079 0.935822 -32.519711 -13.273471 6.676488 28.055712 12.548253 22.635811 11.703724 0.000000 0.000000 0.000000 -1.826728 1.000699 -10.073280 8.005883 -0.181638 17.988343 -16.009253 -35.549515 -10.839438 0.000000 0.000000 0.000000 3.964137 0.078642 -2.245572 -4.339743 1.665019 -5.677511 -2.436925 9.759439 1.368931 4.643090 -1.927926 -13.938561 0.000000 0.000000 0.000000 0.807283 -3.055925 1.073709 -16.625968 -20.379486 0.134261 22.042408 -23.131652 -3.467086 0.000000 0.000000 0.000000 0.996348 -5.594312 -2.044343 41.066266 15.068488 1.118028 86.610787 54.670717 53.037936 0.000000 0.000000 0.000000 
-0.401509 0.902493 -0.750279 4.247114 -21.402045 6.977475 6.900546 1.183680 -31.871779 -14.066004 6.904585 26.879487 13.811860 24.486035 12.168029 0.000000 0.000000 0.000000 -1.492974 0.930813 -9.417588 7.962839 -0.180820 16.856107 -15.535566 -33.774930 -10.002619 0.000000 0.000000 0.000000 4.464343 0.059587 -2.078832 -4.915909 1.878612 -5.950287 -2.188528 10.883429 1.326525 4.235108 -1.658643 -13.641217 0.000000 0.000000 0.000000 0.754589 -1.550449 0.565739 -19.316834 -19.113981 0.186864 25.665778 -27.198539 -5.056146 0.000000 0.000000 0.000000 1.837024 -7.100398 -2.709763 42.089760 15.350969 1.284823 92.684169 54.082262 57.796432 0.000000 0.000000 0.000000 
-0.404309 0.903174 -0.751950 4.425726 -20.085764 6.432805 6.734407 0.954290 -31.559718 -14.152141 7.107537 28.340893 13.703869 24.546387 11.656250 0.000000 0.000000 0.000000 -1.606218 0.848402 -8.652519 8.650648 -0.411311 15.488613 -14.707940 -32.166216 -10.786015 0.000000 0.000000 0.000000 4.514533 0.024707 -1.653313 -4.363076 1.698136 -5.411998 -2.528316 10.837804 1.053162 4.615911 -1.877308 -13.204376 0.000000 0.000000 0.000000 1.544605 -1.641543 0.665823 -21.058754 -18.151706 0.186968 27.065867 -30.678623 -6.260209 0.000000 0.000000 0.000000 3.800263 -7.366697 -3.118922 43.217853 15.511033 1.442422 95.479997 54.843272 61.565688 0.000000 0.000000 0.000000 
-0.407263 0.901093 -0.754342 4.993310 -18.815315 5.957327 6.458769 0.843300 -32.847805 -13.159178 6.839540 30.240140 12.884467 23.247852 12.254836 0.000000 0.000000 0.000000 -2.213727 0.868650 -8.847452 9.353027 -0.572550 16.570925 -13.913791 -30.880746 -12.820971 0.000000 0.000000 0.000000 3.865721 0.031348 -1.635381 -2.626833 1.041338 -4.136913 -3.474514 11.241220 0.971293 4.186090 -1.576263 -12.547361 0.000000 0.000000 0.000000 2.455353 -1.813228 0.824802 -21.294038 -18.297903 0.232082 26.837288 -32.273854 -6.765266 0.000000 0.000000 0.000000 5.995875 -6.883866 -3.208775 44.669878 17.307055 2.186972 87.740503 54.315321 55.252306 0.000000 0.000000 0.000000 
-0.409337 0.897263 -0.757840 4.909110 -17.772704 5.464883 7.899599 1.391504 -34.832095 -13.774437 7.428453 32.596687 13.103136 23.152507 15.160400 0.000000 0.000000 0.000000 -1.964264 0.982537 -10.019295 9.717577 -0.650131 19.114955 -13.549556 -30.782678 -14.792161 0.000000 0.000000 0.000000 3.996330 0.015143 -1.401228 -1.682937 0.694280 -2.893693 -3.133886 11.801507 0.517774 3.621214 -1.009987 -13.460133 0.000000 0.000000 0.000000 3.587070 -2.589132 1.207061 -19.987506 -19.399792 0.328055 26.135461 -32.752722 -6.847178 0.000000 0.000000 0.000000 6.467420 -6.583744 -3.085440 47.093715 17.261486 2.434802 79.395724 51.267641 46.352411 0.000000 0.000000 0.000000 
